# xmcd
#
# Track frame offsets:
#	150
#	18437
#	32100
#	47242
#	59510
#	75040
#	88985
#	107660
#	125537
#	139342
#	155502
#	170277
#	183765
#	196909
#	211957
#	233297
# Disc length: 3411 seconds
# Revision: 5
# Processed by: cddbd v1.5.2PL0 Copyright (c) Steve Scherf et al.
#
# Submitted via: libkcddb 0.31
#
DISCID=cb0d5110
DTITLE=Mike Brant - Master Serie
DYEAR=1987
DGENRE=Chanson
TTITLE0=My way
TTITLE1=En plein coeur de ta jeunesse
TTITLE2=On se retrouve par hasard
TTITLE3=Qui pourra te dire
TTITLE4=L'oiseau noir et l'oiseau blanc
TTITLE5=Attendez
TTITLE6=Malaguena
TTITLE7=Dis-lui (Feelings)
TTITLE8=Que tu es belle
TTITLE9=Serre les poings et bats-toi
TTITLE10=Donne un peu de toi
TTITLE11=Je vis la vie que j'ai choisie
TTITLE12=Elle a gardé ses yeux d'enfant
TTITLE13=C'est comme ça que je t'aime
TTITLE14=Toutes les couleurs
TTITLE15=Summertime
EXTD=
EXTT0=
EXTT1=
EXTT2=
EXTT3=
EXTT4=
EXTT5=
EXTT6=
EXTT7=
EXTT8=
EXTT9=
EXTT10=
EXTT11=
EXTT12=
EXTT13=
EXTT14=
EXTT15=
PLAYORDER=
